<?xml version="1.0" encoding="UTF-8"?>
<svg version="1.1" xmlns="http://www.w3.org/2000/svg" width="458" height="95">
<path d="M0 0 C5.61 0 11.22 0 17 0 C20.28486214 6.9607793 23.44852815 13.92019481 26.3125 21.0625 C26.56660645 21.69293213 26.82071289 22.32336426 27.08251953 22.97290039 C28.26192023 25.94866224 29.3354329 28.864807 30 32 C33.35639862 24.99017634 36.25067793 17.88862724 38.85595703 10.57226562 C41.7720554 2.5275814 41.7720554 2.5275814 44 0 C46.78599571 -0.38060051 48.93372751 -0.47962905 51.6875 -0.3125 C52.38939453 -0.28994141 53.09128906 -0.26738281 53.81445312 -0.24414062 C55.5438833 -0.18531647 57.27221438 -0.09563389 59 0 C62.43340317 7.68761992 63.38612579 15.73664324 64.5625 24 C64.77201534 25.41808289 64.98229737 26.83605273 65.19335938 28.25390625 C66.24965164 35.40975949 67.23060332 42.57559604 68.15234375 49.75 C68.31597412 51.02359375 68.47960449 52.2971875 68.64819336 53.609375 C69 57 69 57 69 62 C64.38 62.33 59.76 62.66 55 63 C53.32287215 58.80718038 52.54723934 55.83884989 51.96484375 51.45703125 C51.79533203 50.21888672 51.62582031 48.98074219 51.45117188 47.70507812 C51.28166016 46.42052734 51.11214844 45.13597656 50.9375 43.8125 C50.5955442 41.25609434 50.2506457 38.70008001 49.90234375 36.14453125 C49.67792603 34.44840698 49.67792603 34.44840698 49.44897461 32.71801758 C49.14459679 30.04297347 49.14459679 30.04297347 48 28 C44.15811452 35.94781808 40.84659264 43.86056056 37.98046875 52.19921875 C37 55 37 55 36 57 C32.37 57 28.74 57 25 57 C21.77997369 50.09994363 18.8544575 43.1840211 16.2109375 36.04296875 C14.97148531 32.92834534 13.53930884 29.97629369 12 27 C10.26461525 35.06249186 9.13348463 43.13308873 8.14453125 51.31640625 C8.02464844 52.25097656 7.90476563 53.18554688 7.78125 54.1484375 C7.67876953 54.98552246 7.57628906 55.82260742 7.47070312 56.68505859 C7 59 7 59 5 63 C0.71 63 -3.58 63 -8 63 C-9.13247285 59.60258145 -8.87388624 57.89870054 -8.36328125 54.3828125 C-8.19997314 53.23143799 -8.03666504 52.08006348 -7.8684082 50.89379883 C-7.59323364 49.02824341 -7.59323364 49.02824341 -7.3125 47.125 C-7.0332307 45.17676125 -6.75397459 43.2285205 -6.47550964 41.28016663 C-6.28195117 39.92890799 -6.08744776 38.57778441 -5.89204407 37.22679138 C-5.19275971 32.38774646 -4.52529023 27.54507504 -3.875 22.69921875 C-3.69493471 21.36376561 -3.51484075 20.02831633 -3.3347168 18.69287109 C-2.99046295 16.13486704 -2.64813258 13.57660328 -2.30786133 11.01806641 C-2.1508374 9.8635498 -1.99381348 8.7090332 -1.83203125 7.51953125 C-1.69514893 6.49964111 -1.5582666 5.47975098 -1.41723633 4.42895508 C-1 2 -1 2 0 0 Z " fill="#0664FA" transform="translate(126,12)"/>
<path d="M0 0 C3.70390021 2.02666238 5.65363011 3.48044516 8 7 C8.86324101 11.7705424 8.48323474 15.15823626 6.0625 19.375 C3.22687357 22.32340702 0.07810921 23.08320747 -3.78125 24.14453125 C-7.42748335 25.55038531 -9.39811284 28.14427019 -12 31 C-12.66 31 -13.32 31 -14 31 C-14 31.66 -14 32.32 -14 33 C-14.66 33 -15.32 33 -16 33 C-16.37125 33.86625 -16.37125 33.86625 -16.75 34.75 C-18.18299988 37.32939979 -19.78424676 39.06121592 -22 41 C-22.66 41 -23.32 41 -24 41 C-24 41.66 -24 42.32 -24 43 C-25.875 45.125 -25.875 45.125 -28 47 C-28.66 47 -29.32 47 -30 47 C-30.33 47.99 -30.66 48.98 -31 50 C-33.5729057 52.67186361 -34.85724926 52.99015512 -38.625 53.25 C-42 53 -42 53 -44 52 C-44 51.34 -44 50.68 -44 50 C-45.32 49.34 -46.64 48.68 -48 48 C-48 47.34 -48 46.68 -48 46 C-48.58426758 45.74025391 -49.16853516 45.48050781 -49.77050781 45.21289062 C-52.15561164 43.915344 -53.75190637 42.50658878 -55.671875 40.59375 C-56.33574219 39.93246094 -56.99960937 39.27117188 -57.68359375 38.58984375 C-58.36550781 37.90019531 -59.04742187 37.21054687 -59.75 36.5 C-60.44738281 35.81035156 -61.14476563 35.12070312 -61.86328125 34.41015625 C-62.52199219 33.74886719 -63.18070313 33.08757813 -63.859375 32.40625 C-64.46233398 31.80103516 -65.06529297 31.19582031 -65.68652344 30.57226562 C-67 29 -67 29 -67 27 C-68.32 26.34 -69.64 25.68 -71 25 C-71 24.34 -71 23.68 -71 23 C-71.66 23 -72.32 23 -73 23 C-73.14892693 28.4259046 -73.25748635 33.85060596 -73.32958984 39.27807617 C-73.35966233 41.12203712 -73.4005326 42.96585621 -73.45263672 44.80932617 C-73.52587858 47.46829291 -73.55955005 50.12536075 -73.5859375 52.78515625 C-73.63238907 54.01057884 -73.63238907 54.01057884 -73.67977905 55.26075745 C-73.68246917 59.8925077 -73.10360027 62.37456195 -70.00878906 65.90966797 C-69.46563049 66.44534393 -68.92247192 66.9810199 -68.362854 67.53292847 C-67 69 -67 69 -66.2734375 71.66015625 C-66.50575275 77.15530536 -67.04420789 80.83600831 -71 85 C-76.00788107 87.74241106 -81.5956164 87.52223472 -87 86 C-90.50338073 83.0685998 -92.16365569 80.49426262 -93 76.0625 C-93.31077464 71.6864571 -92.06578298 68.82552404 -90 65 C-89.34 64.34 -88.68 63.68 -88 63 C-87.68229428 60.56186299 -87.68229428 60.56186299 -87.71289062 57.69580078 C-87.69947632 56.5877005 -87.68606201 55.47960022 -87.67224121 54.33792114 C-87.66432556 52.53482986 -87.66432556 52.53482986 -87.65625 50.6953125 C-87.6416272 49.46465057 -87.62700439 48.23398865 -87.61193848 46.96603394 C-87.56529292 43.0190755 -87.53078248 39.07210504 -87.5 35.125 C-87.4594843 29.93993585 -87.40526119 24.75517197 -87.34375 19.5703125 C-87.33583435 17.77329391 -87.33583435 17.77329391 -87.32775879 15.93997192 C-87.31434448 14.82556732 -87.30093018 13.71116272 -87.28710938 12.56298828 C-87.27617249 11.09310959 -87.27617249 11.09310959 -87.26501465 9.59353638 C-86.98668458 6.86969009 -86.49909399 5.27809558 -85 3 C-81.27420911 0.51613941 -79.41288598 0.6195788 -75 1 C-72.0625 2.375 -72.0625 2.375 -70 4 C-70 4.66 -70 5.32 -70 6 C-68.68 6.66 -67.36 7.32 -66 8 C-66 8.66 -66 9.32 -66 10 C-65.01 10.33 -64.02 10.66 -63 11 C-63 11.66 -63 12.32 -63 13 C-62.443125 13.226875 -61.88625 13.45375 -61.3125 13.6875 C-58.33840412 15.37550036 -56.27991135 17.46676517 -54 20 C-54 20.66 -54 21.32 -54 22 C-52.68 22.66 -51.36 23.32 -50 24 C-50 24.66 -50 25.32 -50 26 C-49.401875 26.268125 -48.80375 26.53625 -48.1875 26.8125 C-46.00152146 27.99917406 -44.58667406 29.09599113 -43 31 C-43 31.66 -43 32.32 -43 33 C-41.68 33.66 -40.36 34.32 -39 35 C-39 35.66 -39 36.32 -39 37 C-35.81458962 34.48130342 -33.16451261 32.19825878 -30.5625 29.0625 C-28.12027663 26.14374524 -25.62507686 23.92653388 -22.70703125 21.5234375 C-20.99888936 19.99900881 -19.61128763 18.41418446 -18.1875 16.625 C-17.465625 15.75875 -16.74375 14.8925 -16 14 C-15.34 14 -14.68 14 -14 14 C-14.04125 12.9275 -14.0825 11.855 -14.125 10.75 C-13.95348837 5.60465116 -13.95348837 5.60465116 -12 3 C-8.06086009 -0.15131193 -4.97011274 -0.61036472 0 0 Z " fill="#0864F9" transform="translate(96,3)"/>
<path d="M0 0 C4.95 0 9.9 0 15 0 C15 21.78 15 43.56 15 66 C8.565 66.495 8.565 66.495 2 67 C1.34 66.01 0.68 65.02 0 64 C-0.639375 64.474375 -1.27875 64.94875 -1.9375 65.4375 C-6.8333926 67.93540439 -11.23377505 68.65764635 -16.62890625 67.375 C-22.22626821 65.37296293 -25.78314644 63.16646178 -29 58 C-32.71423022 49.99779668 -33.08184092 42.77458911 -30.5 34.375 C-28.30709147 28.77876031 -25.00530809 25.26835313 -20 22 C-16.80843552 20.93614517 -14.41502524 20.83322018 -11.0625 20.8125 C-10.02222656 20.79832031 -8.98195313 20.78414062 -7.91015625 20.76953125 C-5 21 -5 21 -1 23 C-0.67 15.41 -0.34 7.82 0 0 Z M-16 38 C-17.45454537 42.28371605 -17.52019991 45.77753021 -15.75 49.9375 C-13.4158634 52.68844671 -11.71355274 53.89141589 -8.125 54.4375 C-4.84842924 54.23041196 -4.84842924 54.23041196 -2.1875 51.9375 C0.45389693 48.39048127 1.07748257 46.41650659 1 42 C-0.97938467 38.25330759 -2.47016053 36.35322631 -6 34 C-10.8737526 34 -12.41744272 34.73589226 -16 38 Z " fill="#0965F9" transform="translate(371,8)"/>
<path d="M0 0 C4.95 0 9.9 0 15 0 C15.33 7.92 15.66 15.84 16 24 C17.32 23.34 18.64 22.68 20 22 C25.14643073 21.30035451 30.54345722 20.84567137 35.3359375 23.09765625 C39.65358635 26.51351768 40.70171163 29.63423975 42 35 C42.15557575 37.55729731 42.21589035 40.12165115 42.1953125 42.68359375 C42.1924826 43.38396255 42.18965271 44.08433136 42.18673706 44.80592346 C42.17564885 47.0166317 42.15056703 49.22691671 42.125 51.4375 C42.11495546 52.94725972 42.1058322 54.45702588 42.09765625 55.96679688 C42.07745843 59.64482073 42.03829093 63.32194336 42 67 C37.38 67.33 32.76 67.66 28 68 C27.11607213 64.46428851 26.91706253 62.07711131 27.0078125 58.5 C27.02457031 57.448125 27.04132813 56.39625 27.05859375 55.3125 C27.102868 53.1039963 27.15495329 50.89563539 27.21484375 48.6875 C27.23611328 47.1096875 27.23611328 47.1096875 27.2578125 45.5 C27.2798877 44.5409375 27.30196289 43.581875 27.32470703 42.59375 C26.94165773 39.53396371 26.13429376 38.19592713 24 36 C21.5 35.33333333 21.5 35.33333333 19 36 C15.80335431 39.22307219 15.59292423 41.86001248 15.48828125 46.296875 C15.45283203 47.50214844 15.41738281 48.70742188 15.38085938 49.94921875 C15.34702148 51.83060547 15.34702148 51.83060547 15.3125 53.75 C15.27833984 55.01972656 15.24417969 56.28945313 15.20898438 57.59765625 C15.12650999 60.73168274 15.05735516 63.86542955 15 67 C12.68802845 67.19390729 10.3753971 67.37996367 8.0625 67.5625 C6.77472656 67.66691406 5.48695313 67.77132812 4.16015625 67.87890625 C2.59587891 67.93884766 2.59587891 67.93884766 1 68 C0 67 0 67 -0.12025452 64.33616638 C-0.11803391 63.14813919 -0.11581329 61.960112 -0.11352539 60.73608398 C-0.11367142 60.08244873 -0.11381744 59.42881348 -0.1139679 58.75537109 C-0.11326883 56.58557872 -0.10547678 54.41587121 -0.09765625 52.24609375 C-0.09579205 50.74536689 -0.09436816 49.24463943 -0.09336853 47.74391174 C-0.08954352 43.78681774 -0.0797134 39.82976022 -0.06866455 35.87268066 C-0.05845006 31.83765151 -0.05387083 27.80261647 -0.04882812 23.76757812 C-0.0380911 15.84503344 -0.02049445 7.92252546 0 0 Z " fill="#0463FB" transform="translate(393,7)"/>
<path d="M0 0 C2.859375 1.53125 2.859375 1.53125 5 3 C5.33 2.34 5.66 1.68 6 1 C10.62 1 15.24 1 20 1 C20 15.52 20 30.04 20 45 C15.38 45 10.76 45 6 45 C5.67 44.34 5.34 43.68 5 43 C4.34 43.474375 3.68 43.94875 3 44.4375 C-2.46916078 47.28602124 -7.17731608 47.44882752 -13.0625 46.0625 C-18.64822915 44.17763916 -21.86321334 40.91094587 -25 36 C-28.33781963 28.3085026 -28.04025354 18.75264653 -25 11 C-20.05326134 1.10652268 -10.48156734 -1.75668726 0 0 Z M-12 18 C-13.41000664 20.82001327 -13.24548451 22.87007255 -13 26 C-11.72311154 28.80915461 -10.68900183 30.50106764 -8.1875 32.3125 C-5.23367076 33.24084633 -3.084218 33.37765935 0 33 C2.69990662 31.20006226 4.5418865 29.916227 6 27 C6.51441592 22.54172873 6.30466095 20.49853609 3.9375 16.625 C-2.39557799 10.96565371 -6.64357217 12.51603817 -12 18 Z " fill="#0864F9" transform="translate(317,29)"/>
<path d="M0 0 C6.13686882 3.11991821 10.06591626 7.52196753 12.265625 14.12109375 C12.265625 18.41109375 12.265625 22.70109375 12.265625 27.12109375 C2.695625 27.12109375 -6.874375 27.12109375 -16.734375 27.12109375 C-12.11025563 32.12765197 -12.11025563 32.12765197 -6.203125 33.33984375 C-0.84726405 32.86527379 4.22619782 30.91101225 9.265625 29.12109375 C10.51434287 33.54115861 11.3757695 38.90080476 9.265625 43.12109375 C-1.25344198 47.83952297 -10.93824931 46.85970137 -21.49609375 42.99609375 C-22.23472656 42.70734375 -22.97335938 42.41859375 -23.734375 42.12109375 C-23.734375 41.46109375 -23.734375 40.80109375 -23.734375 40.12109375 C-24.600625 39.84265625 -24.600625 39.84265625 -25.484375 39.55859375 C-28.81440489 37.43107465 -30.37133531 34.73217994 -31.734375 31.12109375 C-33.12168398 24.50392933 -33.55130045 17.40072202 -30.734375 11.12109375 C-23.21186569 0.31071423 -13.03561178 -4.19001807 0 0 Z M-14.734375 12.12109375 C-17.14432866 14.75650393 -17.14432866 14.75650393 -17.734375 18.12109375 C-12.454375 18.12109375 -7.174375 18.12109375 -1.734375 18.12109375 C-2.394375 16.14109375 -3.054375 14.16109375 -3.734375 12.12109375 C-4.9925 11.93546875 -6.250625 11.74984375 -7.546875 11.55859375 C-8.25457031 11.45417969 -8.96226562 11.34976563 -9.69140625 11.2421875 C-11.9369092 10.98204576 -11.9369092 10.98204576 -14.734375 12.12109375 Z " fill="#196AEF" transform="translate(228.734375,29.87890625)"/>
<path d="M0 0 C1.67894952 3.35789905 1.16316336 7.14684746 1.16796875 10.83984375 C1.17296135 12.15668907 1.17296135 12.15668907 1.17805481 13.50013733 C1.18312218 15.35872879 1.18546319 17.21732937 1.18530273 19.07592773 C1.18748849 21.92251547 1.20564408 24.76871529 1.22460938 27.61523438 C1.22754345 29.4192695 1.22952815 31.22330648 1.23046875 33.02734375 C1.23765427 33.88053696 1.24483978 34.73373016 1.25224304 35.61277771 C1.2288279 41.65675815 1.2288279 41.65675815 -1 45 C-4.4375 45.4375 -4.4375 45.4375 -8 45 C-10.73691532 42.20024432 -11.38806666 40.09232032 -11.51171875 36.234375 C-11.54716797 35.34492187 -11.58261719 34.45546875 -11.61914062 33.5390625 C-11.65297852 32.15847656 -11.65297852 32.15847656 -11.6875 30.75 C-11.72166016 29.81414062 -11.75582031 28.87828125 -11.79101562 27.9140625 C-11.87332162 25.60949467 -11.9425263 23.30529881 -12 21 C-13.11324611 21.93183523 -14.22329938 22.86748558 -15.33203125 23.8046875 C-15.95053955 24.32530762 -16.56904785 24.84592773 -17.20629883 25.38232422 C-19.78391674 27.70698684 -21.82483729 30.29574366 -24 33 C-26.1875 35.375 -26.1875 35.375 -28 37 C-28.66 37 -29.32 37 -30 37 C-30.02126953 37.90492187 -30.02126953 37.90492187 -30.04296875 38.828125 C-30.28394362 42.86608235 -30.46397231 45.31321452 -33 48.5625 C-37.09270946 50.52358995 -40.54004525 50.82412207 -45 50 C-47.87029869 48.20606332 -49.49131638 47.01736724 -51 44 C-51.63211182 39.40364408 -51.74161831 36.0765427 -49.0625 32.1875 C-46.46295519 30.33068228 -44.40734249 29.25650042 -41.5 28.0625 C-37.77085526 26.52660843 -35.72558781 24.95364102 -33.30078125 21.62890625 C-31.75376046 19.69164598 -30.02315952 18.2182926 -28.125 16.625 C-25.30200537 14.22571938 -22.83291868 11.76355574 -20.4375 8.9375 C-14.24083348 1.64897233 -9.8622153 -3.47003872 0 0 Z " fill="#0361F9" transform="translate(100,40)"/>
<path d="M0 0 C5.28 0 10.56 0 16 0 C18.8621813 6.99644317 21.4673014 14.05301238 23.94921875 21.19140625 C24.72918942 23.86735503 24.72918942 23.86735503 26 25 C26.3556604 23.97060303 26.3556604 23.97060303 26.71850586 22.92041016 C27.79009183 19.82144971 28.86376926 16.72321794 29.9375 13.625 C30.31068359 12.54476562 30.68386719 11.46453125 31.06835938 10.3515625 C31.42607422 9.3203125 31.78378906 8.2890625 32.15234375 7.2265625 C32.6472229 5.79691162 32.6472229 5.79691162 33.15209961 4.33837891 C34 2 34 2 35 0 C39.95 0 44.9 0 50 0 C48.91408985 5.61053577 47.47234339 10.65387586 45.27734375 15.921875 C43.5893004 19.98969811 41.9796739 24.08620466 40.375 28.1875 C39.92314331 29.32819946 39.92314331 29.32819946 39.4621582 30.49194336 C37.71787585 34.94814978 36.23698814 39.37660372 35 44 C32.20865148 44.19425873 29.41716313 44.38069517 26.625 44.5625 C25.43390625 44.64661133 25.43390625 44.64661133 24.21875 44.73242188 C18.2265625 45.11328125 18.2265625 45.11328125 16 44 C14.98141856 41.4042602 14.06217583 38.83154103 13.1875 36.1875 C11.07609527 29.99852153 8.80137586 23.94713758 6.234375 17.9296875 C4.8306918 14.59816091 3.49957238 11.24363526 2.1875 7.875 C1.76855469 6.79992188 1.34960938 5.72484375 0.91796875 4.6171875 C0 2 0 2 0 0 Z " fill="#1168F7" transform="translate(240,30)"/>
<path d="M0 0 C1.15625 2.15234375 1.15625 2.15234375 0.34375 4.90234375 C-0.048125 5.64484375 -0.44 6.38734375 -0.84375 7.15234375 C0.80625 7.15234375 2.45625 7.15234375 4.15625 7.15234375 C4.15625 7.48234375 4.15625 7.81234375 4.15625 8.15234375 C-2.59375 8.27734375 -2.59375 8.27734375 -4.84375 7.15234375 C-4.84375 8.14234375 -4.84375 9.13234375 -4.84375 10.15234375 C-5.83375 10.15234375 -6.82375 10.15234375 -7.84375 10.15234375 C-7.84375 12.13234375 -7.84375 14.11234375 -7.84375 16.15234375 C-5.09315619 16.23342021 -2.34495979 16.29287188 0.40625 16.33984375 C1.18355469 16.36498047 1.96085937 16.39011719 2.76171875 16.41601562 C7.45765592 16.49295403 7.45765592 16.49295403 11.703125 14.640625 C12.42242187 13.90392578 12.42242187 13.90392578 13.15625 13.15234375 C13.15625 14.14234375 13.15625 15.13234375 13.15625 16.15234375 C15.79625 15.49234375 18.43625 14.83234375 21.15625 14.15234375 C21.15625 16.46234375 21.15625 18.77234375 21.15625 21.15234375 C11.91625 21.48234375 2.67625 21.81234375 -6.84375 22.15234375 C-6.84375 25.45234375 -6.84375 28.75234375 -6.84375 32.15234375 C-7.50375 32.15234375 -8.16375 32.15234375 -8.84375 32.15234375 C-8.84375 32.81234375 -8.84375 33.47234375 -8.84375 34.15234375 C-8.18375 34.81234375 -7.52375 35.47234375 -6.84375 36.15234375 C-9.62507288 36.94700743 -11.54989282 37.20968174 -14.40625 36.65234375 C-17.88998878 34.5085045 -19.48598491 31.90972339 -20.84375 28.15234375 C-22.48325524 20.2755903 -22.60191696 12.59567506 -18.27734375 5.62890625 C-14.86220345 1.25476696 -12.13793928 -1.34747362 -6.53125 -2.16015625 C-3.2816981 -2.38971643 -2.33182771 -2.33676802 0 0 Z " fill="#0764FA" transform="translate(217.84375,32.84765625)"/>
<path d="M0 0 C4.62 0 9.24 0 14 0 C14 14.52 14 29.04 14 44 C9.38 44 4.76 44 0 44 C0 29.48 0 14.96 0 0 Z " fill="#0161FC" transform="translate(439,30)"/>
<path d="M0 0 C3.70390021 2.02666238 5.65363011 3.48044516 8 7 C8.86324101 11.7705424 8.48323474 15.15823626 6.0625 19.375 C3.22687357 22.32340702 0.07810921 23.08320747 -3.78125 24.14453125 C-7.42748335 25.55038531 -9.39811284 28.14427019 -12 31 C-12.66 31 -13.32 31 -14 31 C-14 31.66 -14 32.32 -14 33 C-14.66 33 -15.32 33 -16 33 C-16.28875 33.639375 -16.5775 34.27875 -16.875 34.9375 C-18 37 -18 37 -20 38 C-20 35.36 -20 32.72 -20 30 C-19.34 29.67 -18.68 29.34 -18 29 C-18 29.66 -18 30.32 -18 31 C-17.01 31 -16.02 31 -15 31 C-15 30.01 -15 29.02 -15 28 C-13.35 27.67 -11.7 27.34 -10 27 C-10.34444881 24.52733235 -10.34444881 24.52733235 -11 22 C-11.66 21.67 -12.32 21.34 -13 21 C-12.505 20.38125 -12.01 19.7625 -11.5 19.125 C-9.80777227 17.16119096 -9.80777227 17.16119096 -10 15 C-10.9075 15.639375 -11.815 16.27875 -12.75 16.9375 C-15.39221381 18.61428953 -16.9898499 19.53689998 -20 20 C-20 18 -20 18 -18.125 15.875 C-16 14 -16 14 -14 14 C-14.061875 12.39125 -14.061875 12.39125 -14.125 10.75 C-13.95348837 5.60465116 -13.95348837 5.60465116 -12 3 C-8.06086009 -0.15131193 -4.97011274 -0.61036472 0 0 Z " fill="#136AF6" transform="translate(96,3)"/>
<path d="M0 0 C0.02696365 1.79158489 0.04637917 3.58328473 0.0625 5.375 C0.07410156 6.37273437 0.08570313 7.37046875 0.09765625 8.3984375 C0 11 0 11 -1 13 C-11.51906698 17.71842922 -21.20387431 16.73860762 -31.76171875 12.875 C-32.50035156 12.58625 -33.23898438 12.2975 -34 12 C-34 11.34 -34 10.68 -34 10 C-34.99 9.67 -35.98 9.34 -37 9 C-34.50907189 7.75453595 -33.58919267 8.2232422 -31 9 C-30.67 7.68 -30.34 6.36 -30 5 C-29.34 5 -28.68 5 -28 5 C-28.33 4.01 -28.66 3.02 -29 2 C-27.7934375 2.2475 -27.7934375 2.2475 -26.5625 2.5 C-18.27803103 3.66273249 -12.38890943 2.76820703 -4.50390625 -0.22265625 C-2 -1 -2 -1 0 0 Z " fill="#0B65F7" transform="translate(239,60)"/>
<path d="M0 0 C0.33 0.66 0.66 1.32 1 2 C1.99 2 2.98 2 4 2 C5.13302814 5.39908442 4.79478216 6.5824367 4 10 C3.896875 11.03125 3.79375 12.0625 3.6875 13.125 C3 16 3 16 1.375 17.8125 C-2.94144686 19.97072343 -6.62504545 20.31131046 -11.3125 19.25 C-14 18 -14 18 -16 15 C-16.52772996 11.9336112 -16.53312565 9.06690564 -16 6 C-12.63859268 2.52654577 -7.7286747 2.20868183 -3.109375 1.4296875 C-1.02273838 1.20665027 -1.02273838 1.20665027 0 0 Z " fill="#0361FA" transform="translate(65,69)"/>
<path d="M0 0 C4.95 0 9.9 0 15 0 C15 8.58 15 17.16 15 26 C14.34 26 13.68 26 13 26 C13 18.08 13 10.16 13 2 C9.37 2.33 5.74 2.66 2 3 C2 23.79 2 44.58 2 66 C5.63 66 9.26 66 13 66 C12.97643433 64.69796631 12.97643433 64.69796631 12.95239258 63.36962891 C12.90130445 60.15301713 12.86366973 56.93661187 12.83520508 53.71972656 C12.82010642 52.32675378 12.79962556 50.93382862 12.77368164 49.54101562 C12.73734878 47.54057115 12.72188808 45.53978173 12.70703125 43.5390625 C12.6913208 42.33459473 12.67561035 41.13012695 12.65942383 39.88916016 C12.77181396 38.9357373 12.8842041 37.98231445 13 37 C13.99 36.34 14.98 35.68 16 35 C17.485 35.495 17.485 35.495 19 36 C18.5155542 36.53012695 18.0311084 37.06025391 17.53198242 37.60644531 C15.58008933 40.65606441 15.57329618 42.69224199 15.48828125 46.296875 C15.45283203 47.50214844 15.41738281 48.70742188 15.38085938 49.94921875 C15.34702148 51.83060547 15.34702148 51.83060547 15.3125 53.75 C15.27833984 55.01972656 15.24417969 56.28945313 15.20898438 57.59765625 C15.12650999 60.73168274 15.05735516 63.86542955 15 67 C12.68802845 67.19390729 10.3753971 67.37996367 8.0625 67.5625 C6.77472656 67.66691406 5.48695313 67.77132812 4.16015625 67.87890625 C2.59587891 67.93884766 2.59587891 67.93884766 1 68 C0 67 0 67 -0.12025452 64.33616638 C-0.11803391 63.14813919 -0.11581329 61.960112 -0.11352539 60.73608398 C-0.11367142 60.08244873 -0.11381744 59.42881348 -0.1139679 58.75537109 C-0.11326883 56.58557872 -0.10547678 54.41587121 -0.09765625 52.24609375 C-0.09579205 50.74536689 -0.09436816 49.24463943 -0.09336853 47.74391174 C-0.08954352 43.78681774 -0.0797134 39.82976022 -0.06866455 35.87268066 C-0.05845006 31.83765151 -0.05387083 27.80261647 -0.04882812 23.76757812 C-0.0380911 15.84503344 -0.02049445 7.92252546 0 0 Z " fill="#467FE5" transform="translate(393,7)"/>
<path d="M0 0 C0 3 0 3 -1.9375 5.8125 C-4.03963056 9.06124723 -4.63785124 11.19743801 -5 15 C-4.01 15.33 -3.02 15.66 -2 16 C-2 15.34 -2 14.68 -2 14 C1.465 13.505 1.465 13.505 5 13 C5 13.66 5 14.32 5 15 C3.64453125 16.296875 3.64453125 16.296875 1.8125 17.75 C-0.68658083 19.80390044 -2.80487614 21.83842136 -4.8125 24.375 C-5.534375 25.24125 -6.25625 26.1075 -7 27 C-7.66 27 -8.32 27 -9 27 C-9.02126953 27.90492187 -9.02126953 27.90492187 -9.04296875 28.828125 C-9.28394362 32.86608235 -9.46397231 35.31321452 -12 38.5625 C-15.98676651 40.47282562 -19.64011649 40.73664044 -24 40 C-24.66 39.34 -25.32 38.68 -26 38 C-25.25234375 37.95101562 -24.5046875 37.90203125 -23.734375 37.8515625 C-22.74953125 37.77679688 -21.7646875 37.70203125 -20.75 37.625 C-19.28820312 37.52058594 -19.28820312 37.52058594 -17.796875 37.4140625 C-15.10366811 37.01534751 -13.33036721 36.36492937 -11 35 C-11.01160156 34.24074219 -11.02320312 33.48148438 -11.03515625 32.69921875 C-11.04417969 31.70535156 -11.05320312 30.71148437 -11.0625 29.6875 C-11.07410156 28.70136719 -11.08570312 27.71523437 -11.09765625 26.69921875 C-11 24 -11 24 -10 21 C-13.69151932 19.63277062 -15.47129113 20.4876962 -19 22 C-20.5778125 22.2475 -20.5778125 22.2475 -22.1875 22.5 C-25.12747383 22.74585812 -25.12747383 22.74585812 -27 25 C-27 23.68 -27 22.36 -27 21 C-26.34773438 20.79246094 -25.69546875 20.58492187 -25.0234375 20.37109375 C-19.45249694 18.40729612 -16.06273748 16.5857847 -12.50390625 11.87109375 C-10.2577555 9.07653217 -7.56382479 6.88425446 -4.83203125 4.578125 C-3.13809049 3.11895215 -1.55835516 1.60177682 0 0 Z " fill="#1C6DF4" transform="translate(79,50)"/>
<path d="M0 0 C2 1.375 2 1.375 4 3 C4 3.66 4 4.32 4 5 C5.32 5.66 6.64 6.32 8 7 C8 7.66 8 8.32 8 9 C8.598125 9.268125 9.19625 9.53625 9.8125 9.8125 C11.97224808 10.98493467 13.35790256 12.19369282 15 14 C14.67 14.99 14.34 15.98 14 17 C13.34 17 12.68 17 12 17 C11.67 15.35 11.34 13.7 11 12 C8.36 12 5.72 12 3 12 C3.66 10.68 4.32 9.36 5 8 C4.38125 8.495 3.7625 8.99 3.125 9.5 C1 11 1 11 -1 11 C-0.7834375 12.0828125 -0.7834375 12.0828125 -0.5625 13.1875 C0.21875 17.09375 0.21875 17.09375 1 21 C-0.1055189 20.06409496 -1.20935453 19.12620142 -2.3125 18.1875 C-2.92738281 17.66542969 -3.54226562 17.14335938 -4.17578125 16.60546875 C-7.51952278 13.6626898 -7.51952278 13.6626898 -9 12 C-9 11.34 -9 10.68 -9 10 C-10.32 9.34 -11.64 8.68 -13 8 C-13 7.34 -13 6.68 -13 6 C-13.66 6 -14.32 6 -15 6 C-15.02467609 11.51757479 -15.04284856 17.03511761 -15.05493164 22.55273438 C-15.05996763 24.43066975 -15.06679671 26.3086012 -15.07543945 28.18652344 C-15.08753713 30.88217132 -15.09323557 33.57776747 -15.09765625 36.2734375 C-15.10281754 37.11619232 -15.10797882 37.95894714 -15.11329651 38.82723999 C-15.23367039 43.04731361 -15.23367039 43.04731361 -14 47 C-14.99 46.67 -15.98 46.34 -17 46 C-17.33 31.48 -17.66 16.96 -18 2 C-15.03 2.495 -15.03 2.495 -12 3 C-12 3.66 -12 4.32 -12 5 C-10.3739713 4.93999894 -8.74898451 4.8512115 -7.125 4.75 C-6.22007813 4.70359375 -5.31515625 4.6571875 -4.3828125 4.609375 C-1.82889456 4.24388852 -1.82889456 4.24388852 -0.6796875 1.953125 C-0.34324219 0.98632812 -0.34324219 0.98632812 0 0 Z " fill="#1F6FF4" transform="translate(38,20)"/>
<path d="M0 0 C5.31605787 0.86990038 5.31605787 0.86990038 7.4375 3.5625 C8.6180567 7.78807881 8.75011988 11.38416351 7.625 15.625 C4.49636645 18.39607543 1.90414996 18.26129474 -2.17578125 18.046875 C-4.5625 17.5625 -4.5625 17.5625 -7.1875 15.4375 C-8.82618363 12.0111615 -9.2508962 10.31043488 -8.5625 6.5625 C-6.04451216 2.44215626 -4.84428245 0.7648867 0 0 Z " fill="#0562F8" transform="translate(445.5625,8.4375)"/>
<path d="M0 0 C0.33 0.99 0.66 1.98 1 3 C0.01 4.485 0.01 4.485 -1 6 C-0.67 6 -0.34 6 0 6 C0 7.98 0 9.96 0 12 C-1.65 12.33 -3.3 12.66 -5 13 C-5 13.99 -5 14.98 -5 16 C-6.32 15.67 -7.64 15.34 -9 15 C-9.33 17.64 -9.66 20.28 -10 23 C-10.33 22.34 -10.66 21.68 -11 21 C-11.66 21 -12.32 21 -13 21 C-13 22.32 -13 23.64 -13 25 C-16.45252796 23.84915735 -16.98396862 22.89256677 -19 20 C-19.66 19.34 -20.32 18.68 -21 18 C-20.21625 17.29875 -19.4325 16.5975 -18.625 15.875 C-15.81032321 13.23717845 -15.81032321 13.23717845 -15.1875 9.9375 C-13.61140686 6.03874328 -11.69941569 5.49417636 -7.96875 3.87890625 C-5.05486042 2.57806269 -3.21372263 0 0 0 Z " fill="#0764F9" transform="translate(86,18)"/>
<path d="M0 0 C0.66 0 1.32 0 2 0 C2.93088534 11.28548061 3.24685505 22.53467465 3.29516602 33.85620117 C3.30684303 35.76350224 3.32753263 37.67076691 3.35668945 39.57788086 C3.39913394 42.36854675 3.41548162 45.15827145 3.42578125 47.94921875 C3.44328934 48.80021652 3.46079742 49.65121429 3.47883606 50.52799988 C3.45721203 56.38312476 3.45721203 56.38312476 1.09838867 59.56567383 C-1 61 -1 61 -3 61 C-3 65.62 -3 70.24 -3 75 C-5.45552582 72.54447418 -5.68109812 70.55628676 -6.0390625 67.16796875 C-5.9591122 62.73072698 -4.13216034 59.13216034 -1 56 C-0.66840715 53.53379836 -0.66840715 53.53379836 -0.68115234 50.63232422 C-0.66128265 49.51131317 -0.64141296 48.39030212 -0.62094116 47.23532104 C-0.60938995 46.02071198 -0.59783875 44.80610291 -0.5859375 43.5546875 C-0.56657135 42.31453888 -0.5472052 41.07439026 -0.5272522 39.79666138 C-0.4775119 36.49888221 -0.43627523 33.20113861 -0.39910889 29.90319824 C-0.35910998 26.53822666 -0.30799897 23.17342608 -0.2578125 19.80859375 C-0.16160213 13.20583893 -0.07659617 6.60300989 0 0 Z " fill="#588BE2" transform="translate(9,10)"/>
<path d="M0 0 C0.66 0 1.32 0 2 0 C1.8453125 1.258125 1.690625 2.51625 1.53125 3.8125 C0.82528823 10.15621284 0.62745725 16.51144782 0.39453125 22.88671875 C0.35714844 23.79035156 0.31976563 24.69398437 0.28125 25.625 C0.25095703 26.44226563 0.22066406 27.25953125 0.18945312 28.1015625 C0 30 0 30 -1 31 C-2.70918064 38.23731177 -3.45591129 45.59752992 -4 53 C0.455 52.505 0.455 52.505 5 52 C6.65153793 47.70600138 7.29240103 43.7894708 7.71484375 39.2578125 C8.12231672 36.03151968 9.01252469 33.09408929 10 30 C10.33 30 10.66 30 11 30 C11.54169065 38.52661207 10.30946857 46.7897333 8 55 C5.23547967 56.38226016 2.9538637 56.09525387 -0.125 56.0625 C-1.22070312 56.05347656 -2.31640625 56.04445312 -3.4453125 56.03515625 C-4.28835937 56.02355469 -5.13140625 56.01195312 -6 56 C-7.14789059 52.55632824 -6.85232519 50.7756037 -6.328125 47.20703125 C-6.15958008 46.02971436 -5.99103516 44.85239746 -5.81738281 43.6394043 C-5.63014648 42.37652588 -5.44291016 41.11364746 -5.25 39.8125 C-4.87368524 37.19028225 -4.49860935 34.56791425 -4.125 31.9453125 C-4.02995178 31.28285019 -3.93490356 30.62038788 -3.8369751 29.93785095 C-2.89778444 23.36376674 -2.06158668 16.77836926 -1.25 10.1875 C-1.05905762 8.64122925 -1.05905762 8.64122925 -0.86425781 7.0637207 C-0.57455038 4.70934061 -0.28630934 2.35479533 0 0 Z " fill="#387DE2" transform="translate(124,19)"/>
<path d="M0 0 C4.95 0 9.9 0 15 0 C15 21.78 15 43.56 15 66 C8.565 66.495 8.565 66.495 2 67 C1.34 66.01 0.68 65.02 0 64 C-0.7425 64.495 -1.485 64.99 -2.25 65.5 C-5 67 -5 67 -9 67 C-9 66.34 -9 65.68 -9 65 C-6.03 64.505 -6.03 64.505 -3 64 C-3 63.34 -3 62.68 -3 62 C-1.35 62 0.3 62 2 62 C2 62.99 2 63.98 2 65 C5.63 65 9.26 65 13 65 C13 43.88 13 22.76 13 1 C8.71 1 4.42 1 0 1 C0 0.67 0 0.34 0 0 Z " fill="#74A3EB" transform="translate(371,8)"/>
<path d="M0 0 C0.33 0 0.66 0 1 0 C1.67831052 4.40630513 2.35359176 8.81306203 3.02636719 13.22021484 C3.25442675 14.71154551 3.48323748 16.20276155 3.71289062 17.69384766 C8 45.54125548 8 45.54125548 8 54 C3.38 54.33 -1.24 54.66 -6 55 C-9.47475418 46.31311454 -10.31544201 37.30553929 -10 28 C-7.9514398 31.47140954 -7.46645174 34.71813945 -6.9375 38.6875 C-6.72150234 42.66552043 -6.72150234 42.66552043 -5 46 C-5 47.98 -5 49.96 -5 52 C-1.04 52.33 2.92 52.66 7 53 C6.34 52.01 5.68 51.02 5 50 C4.62109375 47.1171875 4.62109375 47.1171875 4.4375 43.875 C4.53665225 40.12085833 4.53665225 40.12085833 3 37 C2.71284009 35.14868308 2.48440611 33.28818903 2.28125 31.42578125 C2.15363281 30.28302734 2.02601563 29.14027344 1.89453125 27.96289062 C1.69923828 26.15594727 1.69923828 26.15594727 1.5 24.3125 C1.24096709 21.95427468 0.98059361 19.59619614 0.71875 17.23828125 C0.60466797 16.18680908 0.49058594 15.13533691 0.37304688 14.05200195 C0.11691877 11.95654554 -0.20178068 9.8680827 -0.57226562 7.78979492 C-1.01950642 4.87277404 -0.74988694 2.83290622 0 0 Z " fill="#5687E2" transform="translate(187,20)"/>
<path d="M0 0 C4.62 0 9.24 0 14 0 C14 14.52 14 29.04 14 44 C9.38 44 4.76 44 0 44 C0 29.48 0 14.96 0 0 Z M2 2 C2 15.53 2 29.06 2 43 C5.63 43 9.26 43 13 43 C13 29.47 13 15.94 13 2 C9.37 2 5.74 2 2 2 Z " fill="#407CE6" transform="translate(439,30)"/>
<path d="M0 0 C3.73487777 0.4979837 5.81237635 0.87491756 9 3 C9.33 2.34 9.66 1.68 10 1 C14.62 1 19.24 1 24 1 C24 15.52 24 30.04 24 45 C19.38 45 14.76 45 10 45 C9.67 43.68 9.34 42.36 9 41 C9.66 41 10.32 41 11 41 C11 41.99 11 42.98 11 44 C14.63 44 18.26 44 22 44 C22 30.47 22 16.94 22 3 C18.37 3 14.74 3 11 3 C11 3.99 11 4.98 11 6 C6.95743617 4.77782954 3.50711041 3.37245704 0 1 C0 0.67 0 0.34 0 0 Z " fill="#4C87EB" transform="translate(313,29)"/>
<path d="M0 0 C0.33 0.99 0.66 1.98 1 3 C3.64 2.34 6.28 1.68 9 1 C9 3.31 9 5.62 9 8 C4.70868391 8.19619224 0.41693898 8.38048583 -3.875 8.5625 C-5.09832031 8.61857422 -6.32164062 8.67464844 -7.58203125 8.73242188 C-9.33193359 8.80493164 -9.33193359 8.80493164 -11.1171875 8.87890625 C-12.19597168 8.9260376 -13.27475586 8.97316895 -14.38623047 9.02172852 C-17 9 -17 9 -19 8 C-19 7.34 -19 6.68 -19 6 C-18.34 6 -17.68 6 -17 6 C-17 5.34 -17 4.68 -17 4 C-16.43152344 3.93941406 -15.86304688 3.87882812 -15.27734375 3.81640625 C-12.85050938 3.55306028 -10.42533986 3.27674242 -8 3 C-6.95005859 2.89171875 -6.95005859 2.89171875 -5.87890625 2.78125 C-4.24293624 2.59078364 -2.61881028 2.30352693 -1 2 C-0.67 1.34 -0.34 0.68 0 0 Z " fill="#0162FC" transform="translate(230,46)"/>
<path d="M0 0 C0.33 0 0.66 0 1 0 C1.33 15.84 1.66 31.68 2 48 C5.63 48.33 9.26 48.66 13 49 C12.97643433 47.69796631 12.97643433 47.69796631 12.95239258 46.36962891 C12.90130445 43.15301713 12.86366973 39.93661187 12.83520508 36.71972656 C12.82010642 35.32675378 12.79962556 33.93382862 12.77368164 32.54101562 C12.73734878 30.54057115 12.72188808 28.53978173 12.70703125 26.5390625 C12.6913208 25.33459473 12.67561035 24.13012695 12.65942383 22.88916016 C12.77181396 21.9357373 12.8842041 20.98231445 13 20 C13.99 19.34 14.98 18.68 16 18 C16.99 18.33 17.98 18.66 19 19 C18.5155542 19.53012695 18.0311084 20.06025391 17.53198242 20.60644531 C15.58008933 23.65606441 15.57329618 25.69224199 15.48828125 29.296875 C15.45283203 30.50214844 15.41738281 31.70742188 15.38085938 32.94921875 C15.34702148 34.83060547 15.34702148 34.83060547 15.3125 36.75 C15.27833984 38.01972656 15.24417969 39.28945313 15.20898438 40.59765625 C15.12650999 43.73168274 15.05735516 46.86542955 15 50 C12.68802845 50.19390729 10.3753971 50.37996367 8.0625 50.5625 C6.77472656 50.66691406 5.48695313 50.77132812 4.16015625 50.87890625 C2.59587891 50.93884766 2.59587891 50.93884766 1 51 C0 50 0 50 -0.12025452 47.98155212 C-0.11803391 47.09552811 -0.11581329 46.20950409 -0.11352539 45.29663086 C-0.11344986 44.29566879 -0.11337433 43.29470673 -0.11329651 42.26341248 C-0.10813522 41.1748848 -0.10297394 40.08635712 -0.09765625 38.96484375 C-0.0962413 37.85645645 -0.09482635 36.74806915 -0.09336853 35.60609436 C-0.08775033 32.04986931 -0.07519475 28.49370617 -0.0625 24.9375 C-0.05748734 22.53320403 -0.05292403 20.12890708 -0.04882812 17.72460938 C-0.03777499 11.81638496 -0.02101917 5.9081969 0 0 Z " fill="#598DEA" transform="translate(393,24)"/>
<path d="M0 0 C2 1 2 1 3.11279297 4.08227539 C4.12473502 7.97265104 4.22763138 11.65989311 4.1953125 15.68359375 C4.1924826 16.38396255 4.18965271 17.08433136 4.18673706 17.80592346 C4.17564885 20.0166317 4.15056703 22.22691671 4.125 24.4375 C4.11495546 25.94725972 4.1058322 27.45702588 4.09765625 28.96679688 C4.07745843 32.64482073 4.03829093 36.32194336 4 40 C-0.62 40.33 -5.24 40.66 -10 41 C-10.495 39.515 -10.495 39.515 -11 38 C-7.04 38 -3.08 38 1 38 C1.02478935 33.39184965 1.0429023 28.78373847 1.05493164 24.17553711 C1.05994856 22.60912398 1.06676362 21.0427155 1.07543945 19.47631836 C1.08762094 17.21987761 1.09325481 14.96349898 1.09765625 12.70703125 C1.10281754 12.01100296 1.10797882 11.31497467 1.11329651 10.59785461 C1.11371546 6.93529848 0.87148095 3.56131142 0 0 Z " fill="#3D7EEE" transform="translate(431,34)"/>
<path d="M0 0 C0.66 0 1.32 0 2 0 C-0.07042054 7.60837466 -2.85830477 14.7728592 -6 22 C-9.63 22 -13.26 22 -17 22 C-17.83790789 20.21046815 -18.67019396 18.41830305 -19.5 16.625 C-20.19609375 15.12839844 -20.19609375 15.12839844 -20.90625 13.6015625 C-22 11 -22 11 -22 9 C-21.34 9 -20.68 9 -20 9 C-20 9.99 -20 10.98 -20 12 C-19.34 12 -18.68 12 -18 12 C-18 13.32 -18 14.64 -18 16 C-17.34 16 -16.68 16 -16 16 C-16 17.32 -16 18.64 -16 20 C-14.68 20 -13.36 20 -12 20 C-12.33 18.68 -12.66 17.36 -13 16 C-11.02 16.33 -9.04 16.66 -7 17 C-6.67 15.35 -6.34 13.7 -6 12 C-5.34 12 -4.68 12 -4 12 C-3.87882812 11.38511719 -3.75765625 10.77023438 -3.6328125 10.13671875 C-3.46523437 9.32847656 -3.29765625 8.52023438 -3.125 7.6875 C-2.96257812 6.88699219 -2.80015625 6.08648437 -2.6328125 5.26171875 C-2 3 -2 3 0 0 Z " fill="#3C75E2" transform="translate(168,47)"/>
<path d="M0 0 C4.95 0 9.9 0 15 0 C13.91463082 5.51033583 12.78609311 10.06101677 10 15 C9.67 15 9.34 15 9 15 C9 13.35 9 11.7 9 10 C9.66 10 10.32 10 11 10 C11 7.36 11 4.72 11 2 C8.69 2 6.38 2 4 2 C4.33 3.32 4.66 4.64 5 6 C4.21625 6.185625 3.4325 6.37125 2.625 6.5625 C-0.39591977 7.82341699 -0.39591977 7.82341699 -1.125 11.5625 C-1.41375 12.696875 -1.7025 13.83125 -2 15 C-2.99 15.33 -3.98 15.66 -5 16 C-4.54762239 14.08191891 -4.08785537 12.16557967 -3.625 10.25 C-3.24214844 8.64898437 -3.24214844 8.64898437 -2.8515625 7.015625 C-2 4 -2 4 0 0 Z " fill="#1C69EC" transform="translate(275,30)"/>
<path d="M0 0 C9.12 -0.304 9.12 -0.304 12 2 C13.19513673 5.3967044 13.10131796 8.67874783 13.0625 12.25 C13.05347656 13.32765625 13.04445313 14.4053125 13.03515625 15.515625 C13.02355469 16.33546875 13.01195312 17.1553125 13 18 C12.01 18.33 11.02 18.66 10 19 C9.67 20.32 9.34 21.64 9 23 C5.04 23 1.08 23 -3 23 C-3 22.34 -3 21.68 -3 21 C-3.99 20.67 -4.98 20.34 -6 20 C-5.67 18.68 -5.34 17.36 -5 16 C-4.67 16.99 -4.34 17.98 -4 19 C2.85223795 20.43602351 2.85223795 20.43602351 9.125 18 C11.46543521 14.25530367 11.6984044 12.34562738 11 8 C8.84021131 4.11238036 7.48172749 3.16860462 3.25 1.6875 C1.64125 1.3471875 1.64125 1.3471875 0 1 C0 0.67 0 0.34 0 0 Z " fill="#387EE8" transform="translate(311,41)"/>
<path d="M0 0 C0.33 0 0.66 0 1 0 C1.71786093 4.58896418 2.42974267 9.17880236 3.13623047 13.76953125 C3.37712328 15.32935264 3.61961463 16.88892807 3.86376953 18.44824219 C4.21552861 20.6966288 4.56142614 22.94585312 4.90625 25.1953125 C5.0156189 25.8861795 5.12498779 26.57704651 5.2376709 27.28884888 C5.83521852 31.229958 6.10842574 35.01535411 6 39 C3 37 3 37 2.39990234 34.48144531 C2.29629395 33.44084961 2.19268555 32.40025391 2.0859375 31.328125 C1.96476563 30.18859375 1.84359375 29.0490625 1.71875 27.875 C1.54859375 26.080625 1.54859375 26.080625 1.375 24.25 C1.13393781 21.90092591 0.89178562 19.55196338 0.6484375 17.203125 C0.54708496 16.15801758 0.44573242 15.11291016 0.34130859 14.03613281 C0.10634178 11.94597027 -0.20124658 9.86312119 -0.56787109 7.79199219 C-1.01977522 4.87223199 -0.75068959 2.83593847 0 0 Z " fill="#4B84E5" transform="translate(187,20)"/>
<path d="M0 0 C2.4375 1.5 2.4375 1.5 4 3 C-0.16138263 3.08159574 -3.9472484 2.98248524 -8 2 C-9.94005733 5.74153913 -11.76050788 9.36347049 -12.375 13.5625 C-13.18145934 16.70769143 -14.48149274 18.00000894 -17 20 C-17.99 20 -18.98 20 -20 20 C-20 18 -20 18 -18.125 15.875 C-16 14 -16 14 -14 14 C-14.061875 12.39125 -14.061875 12.39125 -14.125 10.75 C-13.95348837 5.60465116 -13.95348837 5.60465116 -12 3 C-8.06832204 -0.14534237 -4.96107425 -0.5412081 0 0 Z " fill="#5389E8" transform="translate(96,3)"/>
<path d="M0 0 C0.33 1.32 0.66 2.64 1 4 C0.34 4 -0.32 4 -1 4 C-0.979375 4.99 -0.95875 5.98 -0.9375 7 C-0.90947446 9.80255446 -1.18710873 11.93554366 -1.75 14.75 C-2.5603183 20.23855597 -0.12396427 25.04104479 2 30 C1.34 30.33 0.68 30.66 0 31 C-4.47220385 24.50809119 -5.59468626 18.27984961 -4.7109375 10.43359375 C-3.90947622 6.31082261 -2.97795422 3.11331578 0 0 Z " fill="#3F85EB" transform="translate(201,37)"/>
<path d="M0 0 C0.80876659 2.82137094 1.10172353 5.25767031 1.02734375 8.1875 C1.01509766 8.96867187 1.00285156 9.74984375 0.99023438 10.5546875 C0.95507621 12.18498471 0.91601304 13.81520238 0.87304688 15.4453125 C0.86208984 16.22648437 0.85113281 17.00765625 0.83984375 17.8125 C0.82300537 18.52019531 0.80616699 19.22789063 0.78881836 19.95703125 C1.03450832 22.33383309 1.915458 23.89173143 3 26 C2.625 28.25 2.625 28.25 2 30 C1.3490741 28.75264433 0.70448331 27.50198168 0.0625 26.25 C-0.29714844 25.55390625 -0.65679687 24.8578125 -1.02734375 24.140625 C-4.44591834 16.61701505 -3.4438704 9.20214899 -0.65625 1.65234375 C-0.4396875 1.10707031 -0.223125 0.56179687 0 0 Z " fill="#4782E7" transform="translate(342,39)"/>
<path d="M0 0 C0.66 0 1.32 0 2 0 C1.8453125 1.258125 1.690625 2.51625 1.53125 3.8125 C0.82528823 10.15621284 0.62745725 16.51144782 0.39453125 22.88671875 C0.33845703 24.24216797 0.33845703 24.24216797 0.28125 25.625 C0.25095703 26.44226563 0.22066406 27.25953125 0.18945312 28.1015625 C0 30 0 30 -1 31 C-1.23075082 32.34747084 -1.41153063 33.70377565 -1.5625 35.0625 C-1.7790625 37.0115625 -1.7790625 37.0115625 -2 39 C-2.33 39 -2.66 39 -3 39 C-3.57040108 25.81739716 -1.82671967 13.0348108 0 0 Z " fill="#3274E2" transform="translate(124,19)"/>
<path d="M0 0 C0.66 0.33 1.32 0.66 2 1 C2.125 6.75 2.125 6.75 1 9 C-5.83827041 12.06737232 -12.62150522 12.37874403 -20 12 C-20 11.34 -20 10.68 -20 10 C-15.71 10 -11.42 10 -7 10 C-7 9.34 -7 8.68 -7 8 C-5.02 8 -3.04 8 -1 8 C-0.67 5.36 -0.34 2.72 0 0 Z " fill="#548EE7" transform="translate(237,64)"/>
<path d="M0 0 C13.86 0.495 13.86 0.495 28 1 C28 1.33 28 1.66 28 2 C19.09 2 10.18 2 1 2 C5.44433762 6.77119784 5.44433762 6.77119784 9 9 C1.25 8.125 1.25 8.125 -1 7 C-0.67 4.69 -0.34 2.38 0 0 Z " fill="#84B0F4" transform="translate(211,55)"/>
<path d="M0 0 C0 4.0333534 -1.60879918 5.83517538 -4 9 C-4.66 9 -5.32 9 -6 9 C-6 9.66 -6 10.32 -6 11 C-6.99 11.33 -7.98 11.66 -9 12 C-9.45375 12.825 -9.9075 13.65 -10.375 14.5 C-12 17 -12 17 -14.6875 17.8125 C-15.450625 17.874375 -16.21375 17.93625 -17 18 C-15.60493574 14.74957109 -14.03216606 12.92628208 -11.3125 10.6875 C-7.32505143 7.31967324 -3.63748264 3.73978684 0 0 Z " fill="#2369E4" transform="translate(79,50)"/>
<path d="M0 0 C2.475 0.99 2.475 0.99 5 2 C5 2.66 5 3.32 5 4 C4.34 4 3.68 4 3 4 C2.97532391 9.51757479 2.95715144 15.03511761 2.94506836 20.55273438 C2.94003237 22.43066975 2.93320329 24.3086012 2.92456055 26.18652344 C2.91246287 28.88217132 2.90676443 31.57776747 2.90234375 34.2734375 C2.89718246 35.11619232 2.89202118 35.95894714 2.88670349 36.82723999 C2.76632961 41.04731361 2.76632961 41.04731361 4 45 C3.01 44.67 2.02 44.34 1 44 C0.67 29.48 0.34 14.96 0 0 Z " fill="#5789DD" transform="translate(20,22)"/>
<path d="M0 0 C0.66 0 1.32 0 2 0 C2.06058594 1.30195312 2.12117188 2.60390625 2.18359375 3.9453125 C2.26804562 5.67188399 2.35269126 7.398446 2.4375 9.125 C2.47681641 9.9809375 2.51613281 10.836875 2.55664062 11.71875 C2.78156402 16.21721792 3.13540883 20.56806207 4 25 C6.97 24.34 9.94 23.68 13 23 C12.34 24.32 11.68 25.64 11 27 C7.6875 27.25 7.6875 27.25 4 27 C1.01735847 24.05551502 0.60221448 21.67972144 0.48828125 17.578125 C0.45283203 16.55332031 0.41738281 15.52851562 0.38085938 14.47265625 C0.35830078 13.40917969 0.33574219 12.34570312 0.3125 11.25 C0.27833984 10.17105469 0.24417969 9.09210938 0.20898438 7.98046875 C0.12659337 5.32041623 0.05741355 2.66068965 0 0 Z " fill="#6599EE" transform="translate(88,58)"/>
<path d="M0 0 C0.33 0 0.66 0 1 0 C1.14285332 6.7809967 1.28522015 13.5620035 1.42724609 20.34301758 C1.47563612 22.65063713 1.5241382 24.95825433 1.57275391 27.26586914 C1.64254631 30.57958376 1.71193791 33.89330656 1.78125 37.20703125 C1.80312378 38.2414888 1.82499756 39.27594635 1.84753418 40.3417511 C1.86755493 41.3025206 1.88757568 42.2632901 1.90820312 43.25317383 C1.92596802 44.09922684 1.94373291 44.94527985 1.96203613 45.81697083 C1.99207747 47.54443236 2 49.27227726 2 51 C1.34 50.67 0.68 50.34 0 50 C0 33.5 0 17 0 0 Z " fill="#89B3EB" transform="translate(393,24)"/>
<path d="M0 0 C3 2 3 2 3.6171875 3.98828125 C4.02306439 7.64732292 4.13903198 10.47595637 3.1875 14.0625 C-0.00039376 16.88606305 -2.79325191 16.38231214 -6.91796875 16.17578125 C-7.60503906 16.11777344 -8.29210937 16.05976563 -9 16 C-9 15.67 -9 15.34 -9 15 C-6.03 15 -3.06 15 0 15 C0 13.68 0 12.36 0 11 C-0.66 10.67 -1.32 10.34 -2 10 C-0.68 9.34 0.64 8.68 2 8 C1.67 7.4225 1.34 6.845 1 6.25 C0 4 0 4 0 0 Z " fill="#3D79E7" transform="translate(450,10)"/>
<path d="M0 0 C1.051875 0.12375 2.10375 0.2475 3.1875 0.375 C1.8675 0.705 0.5475 1.035 -0.8125 1.375 C-0.8125 2.365 -0.8125 3.355 -0.8125 4.375 C-2.1325 4.705 -3.4525 5.035 -4.8125 5.375 C-4.8125 9.005 -4.8125 12.635 -4.8125 16.375 C-7.51551172 14.17880298 -8.69665463 12.96709854 -9.375 9.5 C-8.34568894 3.78160523 -5.86727941 0.57710945 0 0 Z " fill="#5389E5" transform="translate(445.8125,8.625)"/>
<path d="M0 0 C1.32 0 2.64 0 4 0 C4 0.99 4 1.98 4 3 C3.34 3 2.68 3 2 3 C1.97873047 3.90492187 1.97873047 3.90492187 1.95703125 4.828125 C1.71605638 8.86608235 1.53602769 11.31321452 -1 14.5625 C-4.98676651 16.47282562 -8.64011649 16.73664044 -13 16 C-13.66 15.34 -14.32 14.68 -15 14 C-13.87851562 13.92652344 -13.87851562 13.92652344 -12.734375 13.8515625 C-11.25710937 13.73941406 -11.25710937 13.73941406 -9.75 13.625 C-8.77546875 13.55539063 -7.8009375 13.48578125 -6.796875 13.4140625 C-3.68415798 13.1015826 -3.68415798 13.1015826 0 11 C0 7.37 0 3.74 0 0 Z " fill="#4880E0" transform="translate(68,74)"/>
<path d="M0 0 C0.33 0 0.66 0 1 0 C0.67 2.31 0.34 4.62 0 7 C-2.79134852 7.19425873 -5.58283687 7.38069517 -8.375 7.5625 C-9.1690625 7.61857422 -9.963125 7.67464844 -10.78125 7.73242188 C-16.7734375 8.11328125 -16.7734375 8.11328125 -19 7 C-18.67 5.68 -18.34 4.36 -18 3 C-18 3.66 -18 4.32 -18 5 C-12.72 5 -7.44 5 -2 5 C-1.34 3.35 -0.68 1.7 0 0 Z " fill="#3D7BE3" transform="translate(275,67)"/>
<path d="M0 0 C0.66 0 1.32 0 2 0 C2 0.99 2 1.98 2 3 C2.66 3 3.32 3 4 3 C4 4.32 4 5.64 4 7 C4.66 7 5.32 7 6 7 C6 8.32 6 9.64 6 11 C7.32 11 8.64 11 10 11 C9.67 9.68 9.34 8.36 9 7 C11.97 7.495 11.97 7.495 15 8 C15 8.99 15 9.98 15 11 C12.24921116 11.91692961 10.64051087 12.10886083 7.8125 12.0625 C5.9253125 12.0315625 5.9253125 12.0315625 4 12 C3.3291288 10.3767313 2.66342971 8.75132422 2 7.125 C1.62875 6.22007813 1.2575 5.31515625 0.875 4.3828125 C0 2 0 2 0 0 Z " fill="#2B75F0" transform="translate(146,56)"/>
<path d="M0 0 C1.63001953 0.01353516 1.63001953 0.01353516 3.29296875 0.02734375 C4.12441406 0.03894531 4.95585937 0.05054687 5.8125 0.0625 C5.8125 0.3925 5.8125 0.7225 5.8125 1.0625 C5.23242188 1.08828125 4.65234375 1.1140625 4.0546875 1.140625 C-1.50738761 1.54447204 -4.61053868 2.68426664 -9.1875 6.0625 C-10.1775 6.0625 -11.1675 6.0625 -12.1875 6.0625 C-12.5175 6.7225 -12.8475 7.3825 -13.1875 8.0625 C-15.25 9.1875 -15.25 9.1875 -17.1875 10.0625 C-15.62739422 5.85021439 -12.7029607 3.71703155 -9.1875 1.0625 C-5.90230525 -0.03256492 -3.45086585 -0.03710608 0 0 Z " fill="#3B79E7" transform="translate(360.1875,28.9375)"/>
<path d="M0 0 C0.66 0 1.32 0 2 0 C2 0.66 2 1.32 2 2 C2.99 1.67 3.98 1.34 5 1 C3.70129137 3.89711926 2.48735431 6.00123314 0 8 C-2.48046875 8.51171875 -2.48046875 8.51171875 -5.1875 8.6875 C-6.08855469 8.75324219 -6.98960938 8.81898437 -7.91796875 8.88671875 C-8.94857422 8.94279297 -8.94857422 8.94279297 -10 9 C-10 8.34 -10 7.68 -10 7 C-9.360625 6.896875 -8.72125 6.79375 -8.0625 6.6875 C-7.381875 6.460625 -6.70125 6.23375 -6 6 C-5.67 5.01 -5.34 4.02 -5 3 C-4.67 3.99 -4.34 4.98 -4 6 C-2.35 5.67 -0.7 5.34 1 5 C0.67 3.35 0.34 1.7 0 0 Z " fill="#3876E4" transform="translate(23,81)"/>
<path d="M0 0 C1.32 0.66 2.64 1.32 4 2 C3.01 2 2.02 2 1 2 C0.690625 2.61875 0.38125 3.2375 0.0625 3.875 C-0.625 5.25 -1.3125 6.625 -2 8 C3.28 8 8.56 8 14 8 C14.33 7.34 14.66 6.68 15 6 C15.33 6.99 15.66 7.98 16 9 C9.5510809 10.31909709 3.51244208 9.69508823 -3 9 C-3 7.02 -3 5.04 -3 3 C-2.01 3 -1.02 3 0 3 C0 2.01 0 1.02 0 0 Z " fill="#266AE4" transform="translate(213,40)"/>
<path d="M0 0 C4.95 0 9.9 0 15 0 C13.91463082 5.51033583 12.78609311 10.06101677 10 15 C9.67 15 9.34 15 9 15 C9 13.35 9 11.7 9 10 C9.66 10 10.32 10 11 10 C11 7.36 11 4.72 11 2 C7.37 1.67 3.74 1.34 0 1 C0 0.67 0 0.34 0 0 Z " fill="#6A9AED" transform="translate(275,30)"/>
<path d="M0 0 C1.65 0 3.3 0 5 0 C5.33 0.99 5.66 1.98 6 3 C7.3153341 3.70151152 8.65117592 4.36525925 10 5 C11.75 6.625 11.75 6.625 13 8 C12.67 8.99 12.34 9.98 12 11 C11.34 11 10.68 11 10 11 C9.67 9.35 9.34 7.7 9 6 C6.36 6 3.72 6 1 6 C1.66 4.68 2.32 3.36 3 2 C2.01 1.67 1.02 1.34 0 1 C0 0.67 0 0.34 0 0 Z " fill="#3077EB" transform="translate(40,26)"/>
<path d="M0 0 C9.12 -0.304 9.12 -0.304 12 2 C13.19513673 5.3967044 13.10131796 8.67874783 13.0625 12.25 C13.05347656 13.32765625 13.04445313 14.4053125 13.03515625 15.515625 C13.02355469 16.33546875 13.01195312 17.1553125 13 18 C12.34 18.33 11.68 18.66 11 19 C11.04640625 18.26394531 11.0928125 17.52789062 11.140625 16.76953125 C11.40479346 10.63698326 11.40479346 10.63698326 9.4375 4.9375 C6.43152682 2.5481367 3.7297629 1.7889883 0 1 C0 0.67 0 0.34 0 0 Z " fill="#3573E3" transform="translate(311,41)"/>
<path d="M0 0 C-0.66 1.32 -1.32 2.64 -2 4 C-2.66 4 -3.32 4 -4 4 C-4 4.66 -4 5.32 -4 6 C-4.66 6 -5.32 6 -6 6 C-6.28875 6.639375 -6.5775 7.27875 -6.875 7.9375 C-8 10 -8 10 -10 11 C-10 8.36 -10 5.72 -10 3 C-9.34 2.67 -8.68 2.34 -8 2 C-8 2.66 -8 3.32 -8 4 C-7.01 4 -6.02 4 -5 4 C-5 3.01 -5 2.02 -5 1 C-3 0 -3 0 0 0 Z " fill="#327AF0" transform="translate(86,30)"/>
<path d="M0 0 C4.0013028 0.61558505 6.77824353 2.63737859 10 5 C10.33 5.66 10.66 6.32 11 7 C10.38125 7.144375 9.7625 7.28875 9.125 7.4375 C6.96741678 7.93152225 6.96741678 7.93152225 5 9 C5 8.34 5 7.68 5 7 C4.34 7 3.68 7 3 7 C0 2.61538462 0 2.61538462 0 0 Z " fill="#3279EF" transform="translate(226,30)"/>
<path d="M0 0 C0.66 0.33 1.32 0.66 2 1 C1.38125 1.185625 0.7625 1.37125 0.125 1.5625 C-3.05602866 3.71437233 -3.19451947 6.37533763 -4 10 C-5.65 9.67 -7.3 9.34 -9 9 C-9 9.99 -9 10.98 -9 12 C-9.99 11.67 -10.98 11.34 -12 11 C-10.63981009 7.88036045 -9.16739866 5.99165178 -6.5625 3.8125 C-5.96566406 3.30332031 -5.36882812 2.79414062 -4.75390625 2.26953125 C-3 1 -3 1 0 0 Z " fill="#377AEB" transform="translate(93,38)"/>
<path d="M0 0 C0.66 0 1.32 0 2 0 C2.93619813 3.15506142 3.1057123 5.96586502 3.0625 9.25 C3.05347656 10.14203125 3.04445312 11.0340625 3.03515625 11.953125 C3.02355469 12.62859375 3.01195312 13.3040625 3 14 C2.01 14.495 2.01 14.495 1 15 C0.34 12.36 -0.32 9.72 -1 7 C-1.33 7 -1.66 7 -2 7 C-2.125 4.625 -2.125 4.625 -2 2 C-1.34 1.34 -0.68 0.68 0 0 Z " fill="#3B83EB" transform="translate(175,33)"/>
<path d="M0 0 C6.02453592 0.05997879 6.02453592 0.05997879 8.65625 1.55859375 C10 2.9375 10 2.9375 11.6875 5.4375 C10.3675 5.4375 9.0475 5.4375 7.6875 5.4375 C7.6875 4.7775 7.6875 4.1175 7.6875 3.4375 C2.4075 3.1075 -2.8725 2.7775 -8.3125 2.4375 C-5.56441738 -0.31058262 -3.83475466 0.0738288 0 0 Z " fill="#4580E8" transform="translate(419.3125,28.5625)"/>
<path d="M0 0 C0.33 0 0.66 0 1 0 C1.30071865 7.55137932 0.42625566 14.58856436 -1 22 C-1.99 21.67 -2.98 21.34 -4 21 C-3.855625 20.360625 -3.71125 19.72125 -3.5625 19.0625 C-3.10308731 16.56125311 -2.80432026 14.15115808 -2.5625 11.625 C-2.13939293 7.55088842 -1.24401049 3.89789954 0 0 Z " fill="#4482E7" transform="translate(134,49)"/>
<path d="M0 0 C1.93938819 2.90908228 2.96774957 5.40862379 4.125 8.6875 C4.47820312 9.68136719 4.83140625 10.67523438 5.1953125 11.69921875 C5.46085938 12.45847656 5.72640625 13.21773437 6 14 C6.66 13.67 7.32 13.34 8 13 C8 13.99 8 14.98 8 16 C6.02 16 4.04 16 2 16 C0.80911014 10.61972975 -0.2919519 5.54708616 0 0 Z " fill="#578DE8" transform="translate(150,30)"/>
<path d="M0 0 C0.66 0 1.32 0 2 0 C2 0.66 2 1.32 2 2 C2.66 2 3.32 2 4 2 C4.83719383 4.29032311 5.6698929 6.58210957 6.5 8.875 C6.85771484 9.85146484 6.85771484 9.85146484 7.22265625 10.84765625 C9 15.7734375 9 15.7734375 9 18 C8.34 18 7.68 18 7 18 C5.82887054 15.37690901 4.66294036 12.75171858 3.5 10.125 C3.16613281 9.37863281 2.83226562 8.63226563 2.48828125 7.86328125 C2.17246094 7.14785156 1.85664063 6.43242188 1.53125 5.6953125 C1.23798828 5.03547363 0.94472656 4.37563477 0.64257812 3.69580078 C0 2 0 2 0 0 Z " fill="#5489E8" transform="translate(137,35)"/>
<path d="M0 0 C0.66 0 1.32 0 2 0 C2.33 4.95 2.66 9.9 3 15 C-0.96 15 -4.92 15 -9 15 C-9 14.67 -9 14.34 -9 14 C-5.37 14 -1.74 14 2 14 C1.34 13.01 0.68 12.02 0 11 C-0.1953125 8.30078125 -0.1953125 8.30078125 -0.125 5.3125 C-0.10695312 4.31863281 -0.08890625 3.32476562 -0.0703125 2.30078125 C-0.04710937 1.54152344 -0.02390625 0.78226563 0 0 Z " fill="#397ADF" transform="translate(192,59)"/>
<path d="M0 0 C1.32 0 2.64 0 4 0 C4 6.6 4 13.2 4 20 C3.67 20 3.34 20 3 20 C3 13.73 3 7.46 3 1 C2.34 1 1.68 1 1 1 C1 1.99 1 2.98 1 4 C-0.98 4.99 -0.98 4.99 -3 6 C-3 4.35 -3 2.7 -3 1 C-2.01 1.33 -1.02 1.66 0 2 C0 1.34 0 0.68 0 0 Z " fill="#296DE2" transform="translate(87,57)"/>
<path d="M0 0 C0.66 0 1.32 0 2 0 C0 6 -2 12 -4 18 C-4.33 18 -4.66 18 -5 18 C-4.41146123 11.40836577 -2.9833709 5.9667418 0 0 Z " fill="#5085E5" transform="translate(282,47)"/>
<path d="M0 0 C0.66 1.65 1.32 3.3 2 5 C1.01 5 0.02 5 -1 5 C-1.66 4.34 -2.32 3.68 -3 3 C-3.66 3.66 -4.32 4.32 -5 5 C-7.125 5.625 -7.125 5.625 -9 6 C-8.67 4.35 -8.34 2.7 -8 1 C-5.07175348 0.02391783 -3.04386724 -0.08226668 0 0 Z " fill="#216BEF" transform="translate(99,39)"/>
<path d="M0 0 C1.02328619 3.19411474 0.96256253 5.4215884 0.25 8.6875 C0.09015625 9.47511719 -0.0696875 10.26273438 -0.234375 11.07421875 C-0.61335937 12.02748047 -0.61335937 12.02748047 -1 13 C-1.99 13.33 -2.98 13.66 -4 14 C-4.33 14.99 -4.66 15.98 -5 17 C-6.36420006 12.90739982 -4.7664515 10.52987341 -3.0625 6.8125 C-2.77181641 6.15830078 -2.48113281 5.50410156 -2.18164062 4.83007812 C-1.46304657 3.21618656 -0.7326412 1.60756345 0 0 Z " fill="#4B83EA" transform="translate(168,15)"/>
<path d="M0 0 C1.65 0 3.3 0 5 0 C5 0.99 5 1.98 5 3 C7.31 3 9.62 3 12 3 C12 3.33 12 3.66 12 4 C9.69 4.33 7.38 4.66 5 5 C4.34 4.01 3.68 3.02 3 2 C2.2575 2.495 1.515 2.99 0.75 3.5 C-2 5 -2 5 -6 5 C-6 4.34 -6 3.68 -6 3 C-4.02 2.67 -2.04 2.34 0 2 C0 1.34 0 0.68 0 0 Z " fill="#4B84E6" transform="translate(368,70)"/>
<path d="M0 0 C2.9375 1.5 2.9375 1.5 5 3 C4.67 3.66 4.34 4.32 4 5 C3.45730469 4.77183594 2.91460937 4.54367188 2.35546875 4.30859375 C1.64003906 4.02113281 0.92460937 3.73367187 0.1875 3.4375 C-0.52019531 3.14746094 -1.22789063 2.85742188 -1.95703125 2.55859375 C-4.1735067 1.74936976 -4.1735067 1.74936976 -7 3 C-7.99 4.485 -7.99 4.485 -9 6 C-9.66 6 -10.32 6 -11 6 C-10.6875 4.125 -10.6875 4.125 -10 2 C-6.27420911 -0.48386059 -4.41288598 -0.3804212 0 0 Z " fill="#618EE5" transform="translate(21,4)"/>
<path d="M0 0 C0.33 0.66 0.66 1.32 1 2 C-2.465 4.97 -2.465 4.97 -6 8 C-6.66 6.68 -7.32 5.36 -8 4 C-7.34 3.67 -6.68 3.34 -6 3 C-6 2.34 -6 1.68 -6 1 C-4.02 0.67 -2.04 0.34 0 0 Z " fill="#3F80EE" transform="translate(83,63)"/>
<path d="M0 0 C0 0.66 0 1.32 0 2 C-1.32 2 -2.64 2 -4 2 C-4 2.66 -4 3.32 -4 4 C-7.3 4 -10.6 4 -14 4 C-11.28065651 2.64032826 -8.69151905 1.41019278 -5.875 0.3125 C-5.19179687 0.04050781 -4.50859375 -0.23148438 -3.8046875 -0.51171875 C-2 -1 -2 -1 0 0 Z " fill="#6395E9" transform="translate(239,60)"/>
<path d="M0 0 C0.66 0 1.32 0 2 0 C2.33 0.99 2.66 1.98 3 3 C1.02 3.99 1.02 3.99 -1 5 C-1 5.66 -1 6.32 -1 7 C-2.98 7.99 -2.98 7.99 -5 9 C-4.67 6.36 -4.34 3.72 -4 1 C-2.68 1.99 -1.36 2.98 0 4 C0 2.68 0 1.36 0 0 Z " fill="#3378EB" transform="translate(73,39)"/>
<path d="M0 0 C0.33 0.99 0.66 1.98 1 3 C-0.97420135 5.52259061 -1.96745642 5.9929808 -5.1875 6.6875 C-6.5796875 6.8421875 -6.5796875 6.8421875 -8 7 C-8.33 5.02 -8.66 3.04 -9 1 C-7.515 1.99 -7.515 1.99 -6 3 C-6 3.66 -6 4.32 -6 5 C-4.02 3.35 -2.04 1.7 0 0 Z " fill="#4A84E8" transform="translate(63,35)"/>
<path d="M0 0 C0.33 0 0.66 0 1 0 C1 3.63 1 7.26 1 11 C1.99 11.33 2.98 11.66 4 12 C3.34 12.66 2.68 13.32 2 14 C-0.02613297 12.05828923 -0.94008689 10.57117167 -1.234375 7.765625 C-1.24889108 5.48660077 -1.2391075 3.26692305 -1 1 C-0.67 0.67 -0.34 0.34 0 0 Z " fill="#6899E7" transform="translate(50,74)"/>
<path d="M0 0 C4.82360189 -0.19294408 8.49646738 0.24252386 13 2 C13 2.66 13 3.32 13 4 C11.39431334 3.71682074 9.79047953 3.42312209 8.1875 3.125 C7.29417969 2.96257812 6.40085937 2.80015625 5.48046875 2.6328125 C3 2 3 2 0 0 Z " fill="#578FEA" transform="translate(299,72)"/>
<path d="M0 0 C0 3.66842255 -0.79029126 5.10451959 -3 8 C-5.6875 8.8125 -5.6875 8.8125 -8 9 C-6.4169423 4.7257442 -3.49431596 2.73468206 0 0 Z " fill="#3474E2" transform="translate(70,59)"/>
<path d="M0 0 C0.61875 0.804375 1.2375 1.60875 1.875 2.4375 C3.74164041 5.03874519 3.74164041 5.03874519 6 6 C7.37342831 6.0689472 8.75002102 6.08467708 10.125 6.0625 C11.40375 6.041875 12.6825 6.02125 14 6 C14 6.66 14 7.32 14 8 C12.23050905 8.10815225 10.45912513 8.18566083 8.6875 8.25 C7.70136719 8.29640625 6.71523438 8.3428125 5.69921875 8.390625 C3 8 3 8 1.14453125 6.234375 C0 4 0 4 0 0 Z " fill="#77A6ED" transform="translate(354,55)"/>
<path d="M0 0 C0.99 0.33 1.98 0.66 3 1 C1.625 3 1.625 3 0 5 C-0.66 5 -1.32 5 -2 5 C-2 8.3 -2 11.6 -2 15 C-2.33 15 -2.66 15 -3 15 C-3.08078641 12.87561661 -3.13909141 10.7503677 -3.1875 8.625 C-3.22230469 7.44164062 -3.25710938 6.25828125 -3.29296875 5.0390625 C-3.19628906 4.03617188 -3.09960938 3.03328125 -3 2 C-2.01 1.34 -1.02 0.68 0 0 Z " fill="#3074E2" transform="translate(409,42)"/>
<path d="M0 0 C0.33 0.99 0.66 1.98 1 3 C-0.40445835 5.2636564 -2.1967913 7.0208685 -4 9 C-4.99 8.67 -5.98 8.34 -7 8 C-7 7.34 -7 6.68 -7 6 C-5.46875 4.4921875 -5.46875 4.4921875 -3.5 2.875 C-2.8503125 2.33617187 -2.200625 1.79734375 -1.53125 1.2421875 C-1.0259375 0.83226563 -0.520625 0.42234375 0 0 Z " fill="#4D87ED" transform="translate(71,27)"/>
<path d="M0 0 C0.66 0 1.32 0 2 0 C1.54803755 1.60597325 1.08817673 3.20972508 0.625 4.8125 C0.36976563 5.70582031 0.11453125 6.59914063 -0.1484375 7.51953125 C-1 10 -1 10 -3 13 C-2.88557539 11.39504433 -2.75805306 9.79101881 -2.625 8.1875 C-2.55539063 7.29417969 -2.48578125 6.40085937 -2.4140625 5.48046875 C-2 3 -2 3 0 0 Z " fill="#558AE7" transform="translate(168,47)"/>
<path d="M0 0 C-0.66 1.98 -1.32 3.96 -2 6 C-3.65 6.33 -5.3 6.66 -7 7 C-6.61402985 4.20171644 -6.19863427 3.1794116 -4.0625 1.25 C-2 0 -2 0 0 0 Z " fill="#0066F8" transform="translate(43,28)"/>
<path d="M0 0 C1.63001953 0.01353516 1.63001953 0.01353516 3.29296875 0.02734375 C4.12441406 0.03894531 4.95585937 0.05054687 5.8125 0.0625 C5.8125 0.3925 5.8125 0.7225 5.8125 1.0625 C4.85537109 1.15337891 4.85537109 1.15337891 3.87890625 1.24609375 C3.05261719 1.32988281 2.22632813 1.41367187 1.375 1.5 C0.13943359 1.62181641 0.13943359 1.62181641 -1.12109375 1.74609375 C-3.17412025 1.85180815 -3.17412025 1.85180815 -4.1875 3.0625 C-6.18708364 3.10330783 -8.18795254 3.10504356 -10.1875 3.0625 C-8.19010785 -0.9322843 -3.93646808 -0.04232761 0 0 Z " fill="#5F96E7" transform="translate(360.1875,28.9375)"/>
<path d="M0 0 C0 0.99 0 1.98 0 3 C-3.63 3.66 -7.26 4.32 -11 5 C-7.1149899 1.1149899 -5.51424489 0 0 0 Z " fill="#4584E5" transform="translate(309,29)"/>
<path d="M0 0 C1.32 0 2.64 0 4 0 C4 0.99 4 1.98 4 3 C3.34 3 2.68 3 2 3 C1.67 5.97 1.34 8.94 1 12 C0.67 12 0.34 12 0 12 C0 8.04 0 4.08 0 0 Z " fill="#5087E7" transform="translate(68,74)"/>
<path d="M0 0 C0.99 0.33 1.98 0.66 3 1 C3 4 3 7 3 10 C2.34 9.67 1.68 9.34 1 9 C0.5859375 6.93359375 0.5859375 6.93359375 0.375 4.4375 C0.30023438 3.61121094 0.22546875 2.78492187 0.1484375 1.93359375 C0.09945312 1.29550781 0.05046875 0.65742187 0 0 Z " fill="#4D83E8" transform="translate(179,65)"/>
<path d="M0 0 C3 2 3 2 3.51171875 4.1640625 C3.56972656 4.97617188 3.62773437 5.78828125 3.6875 6.625 C3.75324219 7.44226563 3.81898438 8.25953125 3.88671875 9.1015625 C3.92410156 9.72804688 3.96148437 10.35453125 4 11 C3.34 11 2.68 11 2 11 C0.80712589 7.12315913 0 4.08378077 0 0 Z " fill="#4883DF" transform="translate(450,10)"/>
<path d="M0 0 C0.33 0.66 0.66 1.32 1 2 C1.99 2.33 2.98 2.66 4 3 C4 3.66 4 4.32 4 5 C4.99 5.33 5.98 5.66 7 6 C3.98968256 6.93423645 3.13349732 7.04449911 0 6 C0 4.02 0 2.04 0 0 Z " fill="#397CE9" transform="translate(29,11)"/>
<path d="M0 0 C0.66 0 1.32 0 2 0 C2 0.66 2 1.32 2 2 C2.99 1.67 3.98 1.34 5 1 C3.70700306 3.88437779 2.34058637 5.87219421 0 8 C-0.66 7.67 -1.32 7.34 -2 7 C-1.67 6.34 -1.34 5.68 -1 5 C-0.34 5 0.32 5 1 5 C0.67 3.35 0.34 1.7 0 0 Z " fill="#5A92EC" transform="translate(23,81)"/>
<path d="M0 0 C0.33 0 0.66 0 1 0 C1.33 2.31 1.66 4.62 2 7 C1.01 7.66 0.02 8.32 -1 9 C-1.66 8.67 -2.32 8.34 -3 8 C-1.125 2.25 -1.125 2.25 0 0 Z " fill="#4A88EF" transform="translate(161,33)"/>
<path d="M0 0 C0.66 0.33 1.32 0.66 2 1 C1.360625 1.2475 0.72125 1.495 0.0625 1.75 C-2.18741541 2.81562433 -2.18741541 2.81562433 -2.75 5.125 C-2.8325 5.74375 -2.915 6.3625 -3 7 C-4.65 7 -6.3 7 -8 7 C-3.375 1.125 -3.375 1.125 0 0 Z " fill="#5D8FEA" transform="translate(93,38)"/>
<path d="M0 0 C2.24606427 1.77444972 2.95081002 2.58352485 3.29296875 5.48046875 C3.25816406 6.37378906 3.22335938 7.26710938 3.1875 8.1875 C3.16042969 9.08855469 3.13335938 9.98960938 3.10546875 10.91796875 C3.07066406 11.60503906 3.03585938 12.29210937 3 13 C2.67 13 2.34 13 2 13 C1.66127487 11.58461283 1.32925376 10.16762037 1 8.75 C0.814375 7.96109375 0.62875 7.1721875 0.4375 6.359375 C0 4 0 4 0 0 Z " fill="#6198E4" transform="translate(26,69)"/>
<path d="M0 0 C1.32 0 2.64 0 4 0 C4.33 0.66 4.66 1.32 5 2 C6.64363134 2.72159424 8.31050386 3.39351421 10 4 C8.375 4.6875 8.375 4.6875 6 5 C2.75 3.5625 2.75 3.5625 0 2 C0 1.34 0 0.68 0 0 Z " fill="#4483E3" transform="translate(347,70)"/>
<path d="M0 0 C0.33 0.66 0.66 1.32 1 2 C0.34 3.32 -0.32 4.64 -1 6 C-3.97 5.67 -6.94 5.34 -10 5 C-10 4.67 -10 4.34 -10 4 C-7.98177083 3.54427083 -5.96354167 3.08854167 -3.9453125 2.6328125 C-1.79280036 2.09525572 -1.79280036 2.09525572 0 0 Z " fill="#5B93EC" transform="translate(321,58)"/>
<path d="M0 0 C0.66 0 1.32 0 2 0 C2 1.32 2 2.64 2 4 C2.66 4 3.32 4 4 4 C4 5.98 4 7.96 4 10 C1.16625119 6.79663178 0.4794463 4.21912747 0 0 Z " fill="#558DE6" transform="translate(244,39)"/>
<path d="M0 0 C0.99 0.33 1.98 0.66 3 1 C2.1875 4.4375 2.1875 4.4375 1 8 C0.01 8.33 -0.98 8.66 -2 9 C-1.34 6.03 -0.68 3.06 0 0 Z " fill="#3374E5" transform="translate(272,37)"/>
<path d="M0 0 C4.7517398 0.43197635 6.92000054 1.32769295 10 5 C6.05140217 4.4359146 3.29120954 3.2568294 0 1 C0 0.67 0 0.34 0 0 Z " fill="#568DE2" transform="translate(313,29)"/>
<path d="M0 0 C0.66 0.33 1.32 0.66 2 1 C2 2.98 2 4.96 2 7 C1.01 7.33 0.02 7.66 -1 8 C-0.67 5.36 -0.34 2.72 0 0 Z " fill="#1E94E8" transform="translate(237,64)"/>
<path d="M0 0 C0.66 0 1.32 0 2 0 C2.99 2.64 3.98 5.28 5 8 C4.01 8.495 4.01 8.495 3 9 C0.90250005 6.64031256 0.03094296 5.45383006 -0.1875 2.25 C-0.125625 1.5075 -0.06375 0.765 0 0 Z " fill="#457FE1" transform="translate(198,59)"/>
<path d="M0 0 C1.32 0.66 2.64 1.32 4 2 C3.01 2 2.02 2 1 2 C0.71125 2.598125 0.4225 3.19625 0.125 3.8125 C-1 6 -1 6 -3 9 C-3 7.02 -3 5.04 -3 3 C-2.01 3 -1.02 3 0 3 C0 2.01 0 1.02 0 0 Z " fill="#588FEC" transform="translate(213,40)"/>
<path d="M0 0 C0.99 0 1.98 0 3 0 C3.33 0.66 3.66 1.32 4 2 C4.66 1.67 5.32 1.34 6 1 C6 1.99 6 2.98 6 4 C4.02 4 2.04 4 0 4 C0 2.68 0 1.36 0 0 Z " fill="#327CEE" transform="translate(152,42)"/>
<path d="M0 0 C0.66 0.33 1.32 0.66 2 1 C2 1.99 2 2.98 2 4 C-0.5 6.1875 -0.5 6.1875 -3 8 C-3 4.42424104 -1.91159393 2.94704065 0 0 Z " fill="#5791EC" transform="translate(296,34)"/>
<path d="M0 0 C0.33 0 0.66 0 1 0 C1.33 3.63 1.66 7.26 2 11 C1.34 11 0.68 11 0 11 C-0.84098656 6.98195309 -1.05404945 3.98196457 0 0 Z " fill="#6295EF" transform="translate(187,20)"/>
<path d="M0 0 C6.93 0.495 6.93 0.495 14 1 C14 1.33 14 1.66 14 2 C7.565 2.495 7.565 2.495 1 3 C0.67 2.01 0.34 1.02 0 0 Z " fill="#467AD8" transform="translate(420,72)"/>
<path d="M0 0 C0.33 0.99 0.66 1.98 1 3 C-0.375 4.5 -0.375 4.5 -2 6 C-2.66 6 -3.32 6 -4 6 C-3.6875 4.125 -3.6875 4.125 -3 2 C-2.01 1.34 -1.02 0.68 0 0 Z " fill="#3274E6" transform="translate(10,65)"/>
<path d="M0 0 C2.475 0.495 2.475 0.495 5 1 C5.33 2.65 5.66 4.3 6 6 C3.97945196 4.35830472 1.97956942 2.69088222 0 1 C0 0.67 0 0.34 0 0 Z " fill="#6CA2E9" transform="translate(33,35)"/>
<path d="M0 0 C-0.66 1.32 -1.32 2.64 -2 4 C-2.66 4 -3.32 4 -4 4 C-4.33 4.66 -4.66 5.32 -5 6 C-5 4.35 -5 2.7 -5 1 C-3 0 -3 0 0 0 Z " fill="#4F89E5" transform="translate(86,30)"/>
</svg>
